<?xml version="1.0" standalone="no"?>
<!DOCTYPE svg PUBLIC "-//W3C//DTD SVG 20010904//EN"
 "http://www.w3.org/TR/2001/REC-SVG-20010904/DTD/svg10.dtd">
<svg version="1.0" xmlns="http://www.w3.org/2000/svg"
 width="1033.000000pt" height="1033.000000pt" viewBox="0 0 1033.000000 1033.000000"
 preserveAspectRatio="xMidYMid meet">
<metadata>
Created by potrace 1.11, written by Peter Selinger 2001-2013
</metadata>
<g transform="translate(0.000000,1033.000000) scale(0.100000,-0.100000)"
fill="#000000" stroke="none">
<path d="M5195 9136 c-16 -8 -45 -28 -64 -45 -40 -36 -62 -38 -116 -11 -42 21
-98 26 -138 11 -13 -5 -66 -12 -118 -15 -110 -7 -204 -20 -239 -34 -14 -5 -50
-13 -80 -17 -66 -9 -124 -27 -206 -66 -34 -16 -73 -29 -88 -29 -38 0 -202 -37
-264 -60 -200 -74 -469 -274 -593 -440 -64 -85 -81 -113 -147 -245 -19 -38
-49 -90 -67 -115 -18 -25 -45 -67 -60 -95 -15 -27 -39 -66 -54 -85 -15 -19
-35 -53 -45 -75 -10 -22 -39 -83 -65 -135 -45 -89 -49 -104 -65 -230 -9 -75
-16 -150 -16 -168 0 -32 0 -32 20 -12 11 11 26 20 34 20 20 0 8 -47 -15 -53
-10 -3 -19 -10 -19 -17 0 -6 4 -9 9 -5 6 3 8 -15 6 -46 -4 -37 -1 -55 11 -66
11 -11 13 -24 8 -42 -14 -54 -21 -100 -13 -96 10 7 49 88 49 103 0 6 14 18 30
27 17 9 30 20 30 25 0 6 5 10 10 10 7 0 7 -6 1 -17 -5 -10 -14 -35 -19 -56
l-11 -38 38 33 c21 18 41 41 44 50 2 9 23 26 46 37 22 12 41 26 41 31 0 6 5
10 10 10 16 0 12 -14 -12 -40 l-22 -23 43 7 c23 3 50 11 59 16 117 65 228 108
457 175 167 49 191 55 245 60 30 3 98 11 150 19 124 18 533 20 527 3 -4 -14
-15 -14 -267 -20 -192 -5 -299 -15 -434 -43 -38 -8 -79 -14 -92 -14 -13 0 -24
-4 -24 -9 0 -5 -16 -12 -35 -15 -57 -11 -247 -75 -281 -96 -17 -10 -47 -21
-65 -25 -38 -8 -190 -78 -229 -105 -14 -9 -61 -36 -105 -60 -44 -23 -86 -47
-94 -53 -7 -6 -21 -16 -31 -22 -119 -70 -257 -193 -425 -377 -100 -110 -113
-142 -75 -191 22 -27 89 -47 160 -47 61 0 66 -10 75 -177 4 -81 9 -164 11
-183 2 -19 4 -100 4 -179 -1 -79 4 -148 9 -155 8 -10 16 -88 12 -124 -1 -9
-12 -10 -40 -6 -23 4 -41 2 -45 -4 -7 -12 69 -209 90 -233 8 -8 14 -24 14 -35
0 -10 7 -38 15 -62 9 -24 13 -47 10 -52 -3 -5 -1 -11 5 -15 5 -3 10 -19 10
-35 0 -17 7 -33 16 -38 12 -6 15 -18 12 -36 -3 -15 -1 -29 3 -32 5 -3 9 -20 9
-38 0 -38 19 -59 44 -50 10 4 16 1 16 -7 1 -10 4 -9 13 3 16 21 16 159 -3 592
-10 242 -10 321 -2 324 7 2 12 10 12 18 0 40 27 -1 83 -126 58 -132 61 -147
39 -227 l-20 -72 24 10 c34 12 44 11 44 -5 0 -8 -12 -19 -27 -24 -26 -10 -26
-10 -5 -11 13 -1 42 -20 66 -44 36 -35 41 -45 32 -59 -8 -13 -7 -20 5 -30 18
-15 59 -72 59 -83 0 -4 -11 -5 -25 -3 -42 8 -28 -10 25 -33 69 -30 65 -40 -20
-52 -21 -3 -19 -5 17 -15 48 -14 60 -27 43 -47 -15 -18 -18 -18 53 -4 66 12
97 5 97 -21 0 -10 15 -27 35 -39 22 -13 35 -28 35 -41 0 -11 5 -20 12 -20 7 0
53 -42 103 -92 87 -90 283 -272 335 -313 35 -27 60 -65 60 -91 0 -12 -18 -38
-41 -60 -22 -21 -51 -49 -63 -61 -13 -13 -27 -23 -32 -23 -5 0 -28 -23 -52
-50 -24 -28 -47 -50 -51 -50 -4 0 -56 -47 -114 -103 -59 -57 -126 -116 -149
-131 -33 -21 -50 -42 -73 -91 -21 -45 -36 -66 -52 -70 -13 -3 -23 -10 -23 -15
0 -6 -10 -10 -21 -10 -19 0 -20 -2 -8 -16 8 -10 14 -42 14 -80 0 -37 5 -68 13
-75 6 -7 12 -19 12 -26 0 -7 7 -13 15 -13 13 0 14 -4 5 -20 -10 -18 -7 -24 13
-21 4 0 7 -11 7 -25 0 -19 4 -25 18 -22 9 2 17 10 17 18 0 8 8 16 18 18 12 2
17 -3 17 -17 0 -20 8 -25 40 -22 8 1 22 -12 31 -27 18 -32 69 -48 99 -32 30
16 58 12 70 -10 8 -15 17 -19 31 -15 27 9 53 -13 38 -31 -14 -17 11 -29 42
-21 13 4 22 0 25 -11 3 -9 12 -32 19 -49 15 -35 10 -67 -9 -60 -8 3 -11 -4 -8
-24 4 -25 0 -30 -37 -46 -23 -10 -41 -23 -41 -30 0 -7 -7 -13 -15 -13 -26 0
-75 29 -75 44 0 8 -6 16 -14 19 -7 3 -16 19 -19 35 -7 33 -39 48 -57 27 -9
-11 -7 -18 8 -31 11 -9 18 -23 15 -30 -3 -8 0 -14 6 -14 20 0 12 -18 -11 -23
-14 -4 -28 0 -39 12 -9 10 -31 23 -48 31 -17 7 -31 18 -31 24 0 6 -9 18 -21
26 -11 8 -27 27 -35 41 -9 19 -21 26 -39 25 -14 0 -25 -1 -25 -1 0 0 6 -16 13
-35 7 -19 22 -50 33 -69 23 -42 136 -214 144 -221 3 -3 18 -21 34 -40 38 -47
169 -190 247 -271 102 -104 149 -158 149 -169 0 -6 -10 -14 -23 -19 -13 -5
-40 -20 -60 -34 -21 -14 -43 -28 -50 -30 -8 -3 -6 -10 7 -20 19 -14 19 -15 -1
-25 -13 -7 -23 -8 -30 -1 -7 7 -16 2 -27 -15 -9 -15 -25 -26 -36 -26 -11 0
-28 -4 -38 -9 -9 -5 -37 -14 -62 -21 -77 -19 -151 -62 -148 -85 3 -23 -30 -34
-43 -14 -6 10 -10 9 -15 -6 -10 -25 -23 -35 -52 -35 -13 0 -32 -8 -43 -19 -11
-10 -37 -27 -57 -37 -20 -10 -43 -23 -51 -29 -14 -10 -53 -15 -118 -15 -18 0
-35 -5 -38 -10 -3 -6 -19 -10 -34 -10 -28 0 -121 -45 -121 -58 0 -4 -14 -13
-31 -21 -17 -7 -51 -29 -75 -47 -33 -25 -54 -34 -83 -34 -46 0 -62 -15 -26
-24 37 -9 32 -33 -7 -32 -26 1 -32 5 -30 19 2 12 -4 17 -19 17 -18 0 -19 -3
-9 -15 13 -16 6 -35 -15 -35 -20 0 -29 19 -16 34 9 11 6 15 -15 20 -14 4 -32
2 -39 -4 -7 -6 -39 -14 -71 -18 -47 -6 -59 -11 -63 -27 -5 -29 -29 -42 -79
-43 -30 0 -50 -6 -58 -16 -6 -9 -20 -16 -31 -16 -11 0 -32 -9 -47 -21 -18 -14
-34 -19 -51 -15 -20 5 -25 3 -25 -13 0 -25 -20 -38 -30 -21 -11 18 -41 5 -34
-14 9 -23 -5 -39 -22 -25 -11 9 -23 3 -59 -32 -25 -24 -57 -63 -72 -86 -32
-50 -173 -145 -251 -168 -52 -16 -138 -69 -194 -121 -41 -38 -108 -111 -108
-118 0 -3 -11 -21 -24 -40 -38 -57 -69 -189 -62 -263 l6 -62 -63 -63 c-36 -35
-110 -107 -166 -161 -55 -54 -101 -102 -101 -107 0 -4 -16 -32 -35 -61 -19
-30 -35 -57 -35 -61 0 -8 -48 -115 -71 -160 -5 -10 -9 -20 -9 -23 0 -3 547 -5
1215 -5 668 0 1215 3 1215 6 0 19 23 165 40 249 58 290 60 308 44 326 -12 13
-13 19 -3 25 8 4 15 2 17 -6 8 -24 61 153 62 206 0 71 23 143 81 259 60 120
73 169 56 207 -15 36 -86 61 -130 46 -25 -9 -32 -8 -42 5 -7 10 -18 17 -26 17
-10 0 -9 4 3 16 13 14 22 15 48 5 20 -7 38 -7 49 -1 12 6 27 3 49 -10 18 -11
32 -17 32 -14 0 4 11 -1 25 -10 14 -9 25 -13 24 -9 -2 27 -20 47 -49 57 -45
15 -51 36 -11 36 20 0 34 -7 41 -20 16 -30 39 -24 56 15 18 44 18 70 -1 89
-25 25 -18 39 15 33 28 -6 30 -4 41 36 6 23 14 49 18 57 34 68 84 199 100 262
23 90 58 162 97 202 39 39 140 88 172 84 26 -3 27 -1 29 50 2 63 5 67 31 53
22 -12 31 -29 143 -285 80 -181 122 -268 143 -296 7 -8 18 -28 26 -45 36 -73
99 -161 180 -251 46 -50 425 -133 680 -149 80 -4 615 -10 630 -6 12 3 188 14
213 13 15 -1 27 3 27 7 0 5 10 9 23 9 12 0 49 7 82 15 33 9 80 18 105 21 92
10 135 18 155 26 11 5 56 21 100 35 44 14 89 29 100 34 80 35 133 53 153 53
13 0 29 9 35 19 7 11 19 19 29 19 9 0 20 4 23 10 3 5 17 10 29 10 13 0 29 6
35 14 15 17 93 58 84 43 -8 -14 16 1 45 26 25 23 85 47 120 47 13 0 22 6 22
15 0 8 6 15 13 15 7 0 29 15 49 33 66 59 93 81 100 82 4 0 13 8 20 17 7 10 22
19 34 21 11 1 33 13 49 25 16 13 35 20 42 18 7 -3 13 1 13 9 0 8 -5 15 -12 15
-12 0 -2 15 10 15 16 1 52 41 52 58 0 10 6 17 13 15 17 -4 77 55 77 76 0 8 5
18 10 21 7 4 9 -3 5 -22 -5 -27 -5 -28 5 -3 6 13 19 32 28 42 32 32 42 47 42
62 0 13 22 28 45 30 6 1 11 11 13 24 2 16 8 22 18 18 9 -3 14 1 14 14 0 11 7
20 15 20 8 0 15 -7 15 -15 0 -8 7 -15 15 -15 8 0 15 -6 15 -14 0 -14 36 -32
54 -27 5 1 13 -4 17 -11 7 -10 9 -9 9 5 0 26 14 20 28 -12 10 -23 11 -39 3
-68 -6 -21 -11 -41 -11 -45 0 -27 106 15 116 45 7 21 34 23 34 2 0 -8 5 -15
10 -15 6 0 10 -10 9 -22 0 -22 -1 -22 -8 -3 -6 14 -10 2 -15 -44 -8 -66 -59
-189 -83 -198 -7 -3 -13 -15 -13 -28 0 -25 -17 -35 -61 -35 -31 0 -36 -9 -17
-28 13 -13 -5 -42 -27 -42 -9 0 -11 -8 -7 -22 4 -17 2 -20 -11 -15 -12 5 -24
-4 -41 -31 -13 -20 -40 -51 -60 -68 -20 -17 -36 -36 -36 -42 0 -5 -13 -15 -30
-21 -16 -5 -30 -17 -30 -25 0 -9 -6 -16 -14 -16 -8 0 -17 -8 -20 -17 -4 -10
-29 -35 -57 -56 -28 -20 -48 -37 -44 -37 5 0 -2 -11 -15 -25 -13 -14 -34 -25
-46 -25 -15 0 -22 -5 -19 -12 5 -12 -13 -26 -92 -72 -18 -11 -33 -28 -33 -38
0 -25 31 -23 37 2 4 16 8 18 19 9 11 -9 18 -8 28 0 12 10 27 9 70 -2 47 -12
56 -12 56 0 0 7 -5 13 -12 13 -6 0 -8 3 -5 7 4 3 24 -2 46 -11 35 -17 37 -20
27 -42 -9 -20 -16 -23 -38 -18 -27 5 -39 -8 -18 -21 5 -3 7 -12 3 -20 -7 -20
-80 -20 -85 0 -2 11 -9 8 -27 -10 l-23 -25 23 -1 c13 -1 30 -1 37 0 6 1 12 -2
12 -7 0 -5 32 -18 70 -28 53 -13 70 -22 70 -35 0 -15 -6 -17 -36 -12 -20 3
-39 2 -43 -3 -3 -5 -15 -14 -26 -20 -15 -9 -19 -20 -17 -48 2 -23 -2 -42 -12
-52 -9 -8 -16 -22 -16 -29 0 -8 -13 -21 -29 -31 -15 -9 -36 -30 -46 -47 -25
-42 -124 -145 -146 -152 -9 -3 -37 -24 -61 -45 -24 -22 -48 -40 -55 -40 -14 0
-59 -53 -68 -80 -3 -11 -9 -19 -13 -17 -4 1 -45 -34 -90 -79 -62 -60 -86 -91
-96 -125 -9 -28 -14 -36 -15 -21 -1 12 -4 22 -8 21 -5 0 -35 -22 -68 -48 -39
-31 -63 -58 -70 -79 -6 -20 -16 -32 -27 -32 -9 0 -22 -9 -28 -20 -11 -20 -4
-20 1805 -20 l1815 0 0 646 0 645 -29 37 c-17 20 -36 49 -44 64 -20 40 -75 97
-148 153 -35 27 -97 78 -136 112 -40 35 -77 63 -81 63 -4 0 -24 15 -44 33 -19
17 -50 40 -69 50 -19 10 -61 32 -94 50 -80 42 -172 114 -215 168 -55 68 -97
104 -153 133 -95 49 -134 71 -151 85 -10 8 -38 22 -64 31 -26 10 -76 28 -112
41 -120 43 -235 100 -272 136 -28 28 -40 49 -49 91 -7 33 -21 66 -39 85 -31
35 -43 36 -246 28 -50 -3 -79 1 -102 13 -17 9 -41 16 -54 16 -13 0 -50 14 -83
30 -33 16 -70 30 -83 30 -12 0 -55 11 -95 25 -120 42 -202 58 -265 50 -32 -4
-82 -9 -112 -11 -61 -4 -154 -17 -275 -38 l-80 -15 -34 26 c-50 39 -103 162
-129 303 -12 64 -26 200 -32 305 -5 105 -12 227 -16 273 -5 79 -2 106 37 312
6 30 13 62 15 71 5 18 38 34 94 45 97 19 186 93 233 194 16 36 42 81 57 100
43 56 108 169 131 229 50 132 80 228 95 309 23 121 58 238 105 344 69 156 83
223 84 388 0 117 -4 154 -18 192 -21 55 -66 92 -130 110 -41 10 -53 9 -131
-16 -48 -16 -89 -26 -93 -23 -3 3 -6 73 -8 154 -5 291 -25 699 -38 783 -35
220 -122 570 -182 735 -84 234 -106 281 -212 470 -28 50 -67 121 -88 158 -20
38 -55 90 -78 116 -81 91 -142 165 -177 210 -101 130 -245 236 -383 281 -21 6
-79 36 -129 66 -51 30 -100 54 -111 54 -10 0 -55 17 -100 39 -132 62 -320 101
-489 101 -55 0 -84 7 -152 35 -92 38 -116 41 -161 21z m30 -696 c3 -11 4 -39
1 -62 -4 -24 -11 -162 -16 -307 -5 -146 -14 -269 -19 -274 -7 -7 -167 -12
-268 -7 -13 0 -29 0 -35 0 -7 -1 -22 -1 -33 -1 -94 0 -123 0 -140 0 -11 1 -36
-1 -55 -4 -80 -10 -131 -15 -235 -21 -97 -6 -113 -5 -128 10 -9 10 -15 21 -12
26 7 11 16 222 19 422 1 92 5 171 9 175 19 19 295 40 532 41 116 1 235 5 265
10 90 15 108 14 115 -8z m-1015 -700 c0 -5 -4 -10 -10 -10 -5 0 -10 5 -10 10
0 6 5 10 10 10 6 0 10 -4 10 -10z m519 -69 c45 10 81 -7 81 -38 0 -27 -46 -51
-63 -34 -6 6 -15 7 -21 2 -15 -12 -78 -17 -94 -7 -15 9 -16 68 -1 83 9 9 18 9
38 -1 17 -8 38 -10 60 -5z m-424 -79 c2 -26 -1 -32 -17 -32 -15 0 -18 5 -13
19 3 11 1 22 -5 26 -5 3 -10 13 -10 20 0 10 6 12 21 6 15 -5 22 -17 24 -39z
m-115 -39 c0 -12 -3 -24 -7 -24 -43 -7 -103 -4 -106 5 -3 6 -6 15 -8 20 -2 5
10 10 26 12 17 2 37 12 45 23 14 17 17 18 33 3 9 -8 17 -26 17 -39z m-1300 34
c0 -7 -7 -22 -15 -33 -19 -26 -20 -55 0 -48 11 4 13 2 9 -9 -6 -18 -34 -31
-34 -17 0 5 -7 7 -15 4 -25 -10 -18 30 10 60 14 15 25 34 25 42 0 7 5 14 10
14 6 0 10 -6 10 -13z m1088 -58 c-5 -38 -46 -58 -123 -63 -38 -2 -78 -7 -88
-11 -15 -6 -18 -4 -15 11 2 13 -4 20 -20 22 -19 3 -23 0 -20 -17 2 -11 0 -20
-4 -21 -26 -1 -36 2 -54 14 -18 14 -18 15 11 26 44 17 105 21 102 7 -1 -7 7
-12 18 -12 11 0 21 6 21 13 3 26 5 26 19 8 12 -16 15 -17 15 -4 0 16 35 34 80
41 55 9 62 8 58 -14z m770 -25 c37 -10 19 -29 -27 -29 -25 0 -45 -6 -50 -14
-5 -7 -14 -10 -20 -7 -6 4 -11 2 -11 -3 0 -16 -19 -13 -38 5 -15 15 -14 18 7
35 24 19 91 25 139 13z m-1123 -62 c-3 -3 -11 0 -18 7 -9 10 -8 11 6 5 10 -3
15 -9 12 -12z m1095 -66 c25 -2 52 -6 60 -9 8 -3 47 -15 85 -25 39 -11 90 -26
115 -33 25 -7 51 -13 58 -12 6 0 12 -5 12 -12 0 -8 -10 -11 -27 -8 -102 17
-237 47 -288 63 -33 10 -86 21 -117 25 -32 4 -58 11 -58 16 0 6 23 8 58 4 31
-4 77 -8 102 -9z m-1340 -23 c0 -9 -29 -33 -39 -33 -6 0 -11 8 -11 18 0 11 8
17 25 18 14 1 25 0 25 -3z m-530 -37 c0 -11 -19 -15 -25 -6 -3 5 1 10 9 10 9
0 16 -2 16 -4z m362 -48 c-7 -7 -12 -20 -12 -29 0 -10 -10 -21 -22 -25 -13 -4
-26 -11 -29 -17 -9 -13 -29 1 -29 20 0 20 28 53 45 53 7 0 18 7 25 15 9 11 16
13 24 5 7 -7 6 -14 -2 -22z m-329 2 c-3 -11 -9 -17 -14 -14 -14 8 -10 34 5 34
9 0 12 -7 9 -20z m417 16 c0 -3 -4 -8 -10 -11 -5 -3 -10 -1 -10 4 0 6 5 11 10
11 6 0 10 -2 10 -4z m1790 -11 c0 -8 -4 -15 -10 -15 -5 0 -10 7 -10 15 0 8 5
15 10 15 6 0 10 -7 10 -15z m-2218 -167 c-6 -6 -12 -4 -15 6 -4 9 -2 16 3 16
6 0 11 10 11 23 2 17 3 15 6 -7 3 -16 0 -33 -5 -38z m2923 -138 c8 -13 -1 -13
-26 0 -10 6 -19 15 -19 21 0 11 35 -5 45 -21z m-1045 -2412 c41 -20 94 -50
117 -67 37 -27 42 -35 48 -85 6 -48 4 -62 -23 -118 -37 -77 -147 -198 -179
-198 -20 0 -67 -17 -115 -41 -32 -16 -105 -3 -183 32 -11 5 -72 10 -136 11
l-116 3 14 -44 c7 -24 13 -56 13 -71 0 -19 12 -38 40 -63 27 -24 40 -44 40
-62 0 -18 7 -28 25 -35 27 -10 30 -17 16 -39 -10 -15 6 -61 20 -61 4 0 11 9
14 20 8 25 23 25 55 0 14 -11 31 -20 38 -20 34 0 212 -120 212 -142 0 -6 -16
-8 -42 -3 -122 19 -191 17 -258 -8 -71 -27 -138 -28 -194 -3 -17 8 -40 17 -50
20 -10 4 -16 9 -13 12 8 8 -18 34 -32 34 -16 0 -13 20 4 26 26 10 16 21 -17
20 -31 -1 -33 1 -30 29 2 17 12 39 23 51 10 11 19 26 19 32 0 7 5 12 10 12 6
0 10 10 10 21 0 18 -2 19 -15 9 -15 -12 -21 -3 -16 24 3 12 -31 76 -40 76 -13
0 2 85 24 133 20 45 24 48 52 44 16 -2 38 -7 47 -12 17 -7 17 -4 3 35 -19 54
-19 113 0 150 14 28 107 110 124 110 5 0 28 19 52 43 69 66 133 115 185 143
71 36 153 30 254 -18z m243 -178 c10 -15 28 -21 67 -24 54 -4 105 -31 105 -57
0 -8 -17 -23 -37 -34 -45 -24 -71 -14 -76 31 -4 36 -26 54 -66 55 -27 0 -28 2
-11 9 17 7 17 9 3 9 -10 1 -18 8 -18 16 0 21 16 19 33 -5z m-1640 -847 c-7 -2
-19 -2 -25 0 -7 3 -2 5 12 5 14 0 19 -2 13 -5z m1383 -144 c47 -9 65 -18 91
-46 29 -32 33 -34 40 -17 16 42 36 52 92 49 29 -2 54 -5 55 -7 1 -2 10 -13 20
-25 17 -21 18 -24 3 -47 -9 -14 -27 -26 -39 -28 -17 -2 -22 -10 -22 -33 1 -39
-11 -46 -69 -39 -36 5 -51 3 -60 -8 -13 -16 -100 -38 -150 -38 l-31 0 24 -17
c13 -9 49 -21 79 -26 72 -11 64 -11 154 5 98 18 137 8 162 -39 10 -18 21 -33
26 -33 4 0 10 -7 13 -16 7 -18 -30 -53 -56 -54 -10 0 -18 -4 -18 -10 0 -5 -9
-10 -21 -10 -11 0 -30 -5 -42 -12 -12 -6 -73 -12 -144 -12 -82 -1 -126 -5
-135 -14 -6 -6 -29 -12 -50 -12 -25 0 -38 -5 -38 -13 0 -22 -113 -52 -147 -39
-36 13 -136 12 -145 -2 -12 -18 3 -87 29 -141 14 -27 28 -56 32 -64 4 -8 21
-19 37 -24 29 -10 46 -26 39 -38 -12 -19 171 -52 305 -55 143 -2 297 -20 353
-39 23 -8 62 -15 87 -15 59 0 80 -13 62 -37 -7 -10 -15 -26 -18 -35 -4 -10
-12 -18 -19 -18 -7 0 -15 -6 -18 -14 -4 -9 -15 -12 -32 -9 -16 4 -33 -1 -44
-11 -11 -10 -48 -21 -84 -26 -36 -6 -86 -17 -111 -25 -25 -9 -67 -17 -93 -19
-61 -5 -103 -16 -103 -27 0 -5 -12 -9 -27 -9 -16 0 -43 -9 -60 -20 -24 -14
-39 -17 -56 -11 -13 5 -39 7 -58 6 -18 -2 -42 -4 -52 -4 -10 -1 -29 -12 -43
-26 -23 -23 -28 -24 -69 -15 -25 6 -48 10 -52 9 -22 -4 -38 4 -67 34 -18 17
-41 37 -52 43 -33 19 -124 134 -131 165 -3 16 -12 29 -19 29 -8 0 -14 6 -14
13 0 7 -15 31 -34 53 -44 52 -68 100 -76 149 -4 31 -9 39 -23 37 -9 -2 -17 2
-17 8 0 7 -10 20 -22 30 l-23 18 23 24 c28 31 28 38 -2 38 -31 0 -50 24 -44
55 6 29 -12 48 -36 39 -21 -8 -31 18 -16 45 6 12 27 32 47 44 36 23 36 25 38
93 4 128 7 132 126 193 92 46 97 48 125 33 16 -8 38 -22 49 -32 22 -19 41 -26
133 -44 36 -8 65 -9 68 -4 3 5 4 32 2 61 l-3 52 30 -3 c17 -2 39 -14 50 -28
l21 -24 11 30 c16 42 50 53 86 28 29 -21 57 -18 57 5 0 18 21 37 40 37 9 0 43
-5 76 -11z m693 -1019 c-21 -14 -32 1 -12 15 12 9 19 10 22 3 2 -6 -3 -14 -10
-18z m-1592 -86 c-3 -3 -12 -4 -19 -1 -8 3 -5 6 6 6 11 1 17 -2 13 -5z m90
-30 c-3 -3 -12 -4 -19 -1 -8 3 -5 6 6 6 11 1 17 -2 13 -5z m-313 -100 c22 -9
20 -24 -3 -24 -21 0 -34 13 -24 24 8 7 8 7 27 0z m-64 -14 c0 -5 -9 -10 -21
-10 -11 0 -17 5 -14 10 3 6 13 10 21 10 8 0 14 -4 14 -10z m4617 -32 c-3 -7
-5 -2 -5 12 0 14 2 19 5 13 2 -7 2 -19 0 -25z m-4702 2 c-3 -5 -10 -10 -16
-10 -5 0 -9 5 -9 10 0 6 7 10 16 10 8 0 12 -4 9 -10z m-111 -128 c10 -9 19
-15 20 -13 3 9 46 -12 46 -23 0 -9 -16 -11 -59 -8 -42 3 -69 -1 -96 -14 -35
-16 -38 -16 -50 -1 -7 9 -17 17 -24 17 -6 0 -11 4 -11 9 0 16 26 30 46 25 12
-3 27 3 39 16 22 24 57 21 89 -8z m-209 -61 c-3 -6 -11 -11 -17 -11 -6 0 -6 6
2 15 14 17 26 13 15 -4z m165 -45 c0 -11 -19 -15 -25 -6 -3 5 1 10 9 10 9 0
16 -2 16 -4z m-370 -66 c0 -5 -5 -10 -11 -10 -5 0 -7 5 -4 10 3 6 8 10 11 10
2 0 4 -4 4 -10z m-65 -20 c-3 -5 -10 -10 -16 -10 -5 0 -9 5 -9 10 0 6 7 10 16
10 8 0 12 -4 9 -10z m213 -12 c-3 -25 -17 -32 -37 -19 -12 8 -12 12 -2 25 20
24 43 20 39 -6z m-268 2 c0 -5 -7 -10 -16 -10 -8 0 -12 5 -9 10 3 6 10 10 16
10 5 0 9 -4 9 -10z m-75 -21 c-4 -5 -13 -9 -22 -9 -13 0 -13 3 -3 15 13 15 35
11 25 -6z m273 -22 c13 -16 -59 -80 -81 -71 -9 3 -16 -3 -20 -15 -5 -22 -37
-30 -37 -9 0 6 -11 1 -26 -12 -17 -17 -27 -21 -32 -13 -10 16 -33 18 -67 4
-16 -6 -36 -14 -44 -16 -7 -3 -11 -11 -8 -19 5 -14 -10 -36 -25 -36 -4 0 -8 7
-8 15 0 18 -10 19 -64 3 -53 -15 -62 -23 -46 -42 10 -13 9 -17 -4 -22 -9 -3
-23 -1 -30 5 -12 10 -17 7 -28 -16 -9 -18 -21 -28 -35 -27 -12 0 -20 -3 -18
-7 4 -6 -96 -69 -110 -69 -12 0 -4 28 9 33 8 3 16 16 18 29 2 15 11 24 25 26
12 2 29 14 37 28 9 13 23 24 30 24 7 0 19 7 26 15 7 8 23 15 36 15 13 0 28 9
34 20 6 11 21 20 34 20 13 0 29 7 36 15 7 8 22 15 33 15 21 0 76 16 113 32 12
5 30 8 40 7 10 -2 30 4 43 13 13 9 29 14 36 12 6 -3 18 2 25 11 7 8 20 15 29
15 9 0 25 7 35 15 24 18 31 19 44 2z m-538 -33 c0 -26 -1 -27 -24 -18 -19 7
-21 40 -3 47 19 7 27 -2 27 -29z m-82 4 c-6 -18 -28 -21 -28 -4 0 9 7 16 16
16 9 0 14 -5 12 -12z m382 -117 c0 -12 -28 -22 -34 -12 -3 5 -3 11 1 15 9 9
33 7 33 -3z m305 -11 c-3 -5 -11 -10 -16 -10 -6 0 -7 5 -4 10 3 6 11 10 16 10
6 0 7 -4 4 -10z m-451 -29 c6 -10 -22 -37 -29 -29 -8 7 5 38 15 38 5 0 11 -4
14 -9z m5289 -11 c3 -11 1 -18 -4 -14 -5 3 -9 12 -9 20 0 20 7 17 13 -6z
m-5028 0 c7 -11 -42 -37 -51 -27 -9 9 15 37 32 37 7 0 16 -4 19 -10z m130 0
c-3 -5 -13 -10 -21 -10 -8 0 -12 5 -9 10 3 6 13 10 21 10 8 0 12 -4 9 -10z
m445 -4 c0 -14 -34 -28 -44 -18 -9 8 14 32 30 32 8 0 14 -6 14 -14z m-507 -28
c-13 -12 -26 -19 -29 -15 -4 4 1 14 12 22 29 22 41 18 17 -7z m-150 -20 c-24
-23 -40 -20 -30 7 4 8 17 15 29 15 l22 0 -21 -22z m-573 -18 c0 -5 -9 -10 -21
-10 -11 0 -17 5 -14 10 3 6 13 10 21 10 8 0 14 -4 14 -10z m506 -15 c-21 -16
-32 -13 -21 4 3 6 14 11 23 11 15 -1 15 -2 -2 -15z m154 1 c0 -3 -4 -8 -10
-11 -5 -3 -10 -1 -10 4 0 6 5 11 10 11 6 0 10 -2 10 -4z m-200 -15 c0 -11 -39
-25 -47 -18 -3 3 -2 10 2 16 8 13 45 15 45 2z m-615 -11 c-3 -5 -10 -10 -16
-10 -5 0 -9 5 -9 10 0 6 7 10 16 10 8 0 12 -4 9 -10z m240 -7 c-4 -10 -9 -26
-12 -35 -6 -21 -45 -36 -51 -19 -2 6 -10 11 -18 11 -12 0 -12 4 -4 20 6 11 19
20 30 20 10 0 22 5 25 10 3 6 13 10 22 10 10 0 13 -5 8 -17z m285 -12 c0 -12
-20 -25 -27 -18 -7 7 6 27 18 27 5 0 9 -4 9 -9z m235 -1 c-3 -5 -10 -10 -16
-10 -5 0 -9 5 -9 10 0 6 7 10 16 10 8 0 12 -4 9 -10z m513 -12 c-5 -15 -48
-24 -48 -10 0 14 12 22 33 22 10 0 17 -5 15 -12z m-1141 -25 c3 -7 -7 -17 -21
-23 -14 -5 -26 -15 -26 -21 0 -6 -7 -9 -15 -5 -23 9 -65 -11 -65 -31 0 -12 -3
-14 -8 -6 -6 10 -22 9 -70 -2 -72 -17 -142 -59 -142 -86 0 -11 -4 -19 -10 -19
-5 0 -10 7 -10 15 0 9 -6 12 -15 9 -9 -4 -15 0 -15 8 0 20 21 38 42 38 10 0
21 7 24 15 4 8 18 15 33 15 15 0 31 8 39 20 7 11 21 20 31 20 11 0 21 5 23 12
3 7 21 12 41 11 20 -1 40 3 43 8 3 5 15 9 27 9 12 0 31 7 42 16 22 17 46 15
52 -3z m326 3 c4 -9 -8 -19 -31 -29 -53 -22 -82 -30 -82 -20 0 16 16 33 35 36
11 1 29 8 40 15 26 15 32 15 38 -2z m224 -3 c-9 -9 -19 -14 -23 -11 -10 10 6
28 24 28 15 0 15 -1 -1 -17z m-47 -32 c0 -10 -30 -24 -37 -17 -3 3 -2 9 2 15
8 13 35 15 35 2z m-333 -38 c-9 -9 -17 -11 -21 -5 -3 6 2 18 11 28 12 12 18
13 21 4 2 -6 -2 -19 -11 -27z m838 27 c-3 -5 -10 -10 -16 -10 -5 0 -9 5 -9 10
0 6 7 10 16 10 8 0 12 -4 9 -10z m-589 -32 c-10 -6 -20 -7 -24 -3 -9 8 20 25
31 18 5 -3 2 -10 -7 -15z m628 7 c-7 -16 -42 -30 -52 -20 -8 8 26 35 45 35 7
0 10 -6 7 -15z m-939 -25 c-3 -5 -10 -10 -16 -10 -5 0 -9 5 -9 10 0 6 7 10 16
10 8 0 12 -4 9 -10z m250 -10 c-3 -5 -11 -10 -16 -10 -6 0 -7 5 -4 10 3 6 11
10 16 10 6 0 7 -4 4 -10z m-295 -10 c0 -13 -28 -25 -38 -16 -3 4 0 11 8 16 20
13 30 12 30 0z m920 2 c0 -14 -69 -42 -76 -31 -7 12 -7 12 21 27 24 13 55 15
55 4z m-380 -27 c-7 -9 -15 -13 -17 -11 -7 7 7 26 19 26 6 0 6 -6 -2 -15z
m-620 -15 c0 -5 -7 -10 -16 -10 -8 0 -12 5 -9 10 3 6 10 10 16 10 5 0 9 -4 9
-10z m245 -10 c-3 -5 -10 -10 -16 -10 -5 0 -9 5 -9 10 0 6 7 10 16 10 8 0 12
-4 9 -10z m293 -7 c-2 -10 -14 -19 -26 -21 -19 -3 -23 -8 -18 -27 5 -19 3 -22
-14 -18 -33 9 -71 -6 -103 -40 -19 -20 -32 -27 -34 -19 -6 17 -52 15 -59 -3
-3 -8 -14 -17 -25 -20 -10 -4 -19 -15 -19 -25 0 -21 -42 -40 -48 -21 -5 14
-39 15 -47 1 -3 -5 1 -10 9 -10 21 0 21 -26 0 -34 -28 -11 -36 -7 -31 14 6 22
5 23 -17 14 -9 -3 -16 -17 -16 -29 0 -31 -20 -43 -27 -16 -6 24 -5 23 -27 15
-10 -4 -16 -18 -16 -35 0 -16 -5 -29 -11 -29 -6 0 -9 7 -6 15 7 17 -9 30 -18
15 -10 -16 -45 -12 -45 5 0 21 24 29 47 17 14 -9 20 -5 30 19 7 16 18 29 26
29 8 0 20 7 27 15 7 8 25 15 40 15 16 0 30 7 34 16 5 12 14 15 36 11 23 -5 32
-2 40 13 7 13 21 20 40 20 19 0 30 5 30 14 0 16 24 28 43 20 8 -3 20 2 27 11
7 8 23 15 37 15 13 0 26 7 29 15 4 8 18 15 34 15 19 0 29 6 33 20 7 26 50 28
45 3z m532 -3 c0 -12 -28 -25 -36 -17 -9 9 6 27 22 27 8 0 14 -5 14 -10z
m-1456 -25 c14 -21 14 -25 2 -25 -8 0 -16 5 -18 12 -3 7 -15 3 -36 -12 -21
-16 -30 -30 -27 -41 3 -9 -1 -19 -8 -22 -11 -4 -14 4 -13 31 1 28 7 39 24 48
13 6 29 17 35 23 16 16 23 14 41 -14z m948 3 c-7 -7 -12 -8 -12 -2 0 14 12 26
19 19 2 -3 -1 -11 -7 -17z m563 13 c7 -12 -12 -24 -25 -16 -11 7 -4 25 10 25
5 0 11 -4 15 -9z m-955 -15 c0 -3 -4 -8 -10 -11 -5 -3 -10 -1 -10 4 0 6 5 11
10 11 6 0 10 -2 10 -4z m-310 -16 c0 -5 -9 -10 -21 -10 -11 0 -17 5 -14 10 3
6 13 10 21 10 8 0 14 -4 14 -10z m1320 -16 c0 -8 -4 -12 -10 -9 -5 3 -10 13
-10 21 0 8 5 12 10 9 6 -3 10 -13 10 -21z m-1060 6 c0 -5 -9 -10 -21 -10 -11
0 -17 5 -14 10 3 6 13 10 21 10 8 0 14 -4 14 -10z m-73 -26 c-3 -3 -12 -4 -19
-1 -8 3 -5 6 6 6 11 1 17 -2 13 -5z m5689 -29 c-5 -18 -2 -25 9 -25 17 0 20
-36 6 -59 -13 -20 -34 -2 -28 25 2 13 0 24 -4 24 -5 0 -9 11 -9 24 0 20 8 31
29 35 2 1 0 -10 -3 -24z m-5761 -5 c-3 -5 -13 -10 -21 -10 -8 0 -12 5 -9 10 3
6 13 10 21 10 8 0 12 -4 9 -10z m6362 -56 c6 -95 4 -112 -15 -100 -13 8 -25
107 -16 129 11 29 29 13 31 -29z m-6682 26 c-3 -5 -11 -10 -16 -10 -6 0 -7 5
-4 10 3 6 11 10 16 10 6 0 7 -4 4 -10z m1427 -24 c10 -7 15 -15 12 -18 -10
-10 -44 4 -44 18 0 17 10 17 32 0z m4558 -2 c0 -8 -5 -12 -10 -9 -6 4 -8 11
-5 16 9 14 15 11 15 -7z m-4645 -4 c3 -5 -1 -10 -10 -10 -9 0 -13 5 -10 10 3
6 8 10 10 10 2 0 7 -4 10 -10z m5572 -32 c-3 -7 -5 -2 -5 12 0 14 2 19 5 13 2
-7 2 -19 0 -25z m-5432 2 c3 -5 1 -10 -4 -10 -6 0 -11 5 -11 10 0 6 2 10 4 10
3 0 8 -4 11 -10z m4375 1 c0 -6 -4 -13 -10 -16 -5 -3 -10 1 -10 9 0 9 5 16 10
16 6 0 10 -4 10 -9z m-5980 -5 c0 -3 -4 -8 -10 -11 -5 -3 -10 -1 -10 4 0 6 5
11 10 11 6 0 10 -2 10 -4z m250 0 c0 -3 -4 -8 -10 -11 -5 -3 -10 -1 -10 4 0 6
5 11 10 11 6 0 10 -2 10 -4z m1075 -16 c-3 -5 -11 -10 -16 -10 -6 0 -7 5 -4
10 3 6 11 10 16 10 6 0 7 -4 4 -10z m4808 -23 c-3 -5 -9 -3 -14 4 -4 7 -5 17
-2 22 3 5 9 3 14 -4 4 -7 5 -17 2 -22z m107 4 c0 -20 -17 -37 -27 -28 -7 8 7
47 18 47 5 0 9 -9 9 -19z m600 -38 c0 -33 -12 -63 -25 -63 -20 0 -24 47 -6 64
20 21 31 20 31 -1z m-6440 -12 c0 -6 -11 -16 -25 -23 -174 -91 -256 -130 -261
-125 -4 3 -14 -2 -23 -13 -9 -10 -26 -21 -39 -25 -21 -6 -23 -4 -20 17 2 16
11 24 28 26 14 2 33 11 42 19 10 9 24 13 32 10 10 -4 20 2 26 13 6 11 18 20
27 20 9 0 25 8 35 17 51 46 178 91 178 64z m1068 -19 c2 -7 -7 -12 -23 -12
-24 0 -26 2 -15 15 14 17 31 16 38 -3z m4962 -3 c0 -5 -4 -9 -10 -9 -5 0 -10
7 -10 16 0 8 5 12 10 9 6 -3 10 -10 10 -16z m-5990 2 c0 -5 -7 -12 -16 -15
-22 -9 -24 -8 -24 9 0 8 9 15 20 15 11 0 20 -4 20 -9z m250 -11 c-19 -13 -30
-13 -30 0 0 6 10 10 23 10 18 0 19 -2 7 -10z m680 0 c0 -5 -4 -10 -10 -10 -5
0 -10 5 -10 10 0 6 5 10 10 10 6 0 10 -4 10 -10z m170 0 c8 -5 11 -12 8 -16
-10 -9 -38 3 -38 16 0 12 10 13 30 0z m-227 -24 c3 -8 -1 -17 -10 -20 -20 -8
-27 -1 -20 19 8 19 23 20 30 1z m5447 -6 c0 -11 -4 -20 -10 -20 -5 0 -10 2
-10 4 0 2 -3 11 -6 20 -4 11 -1 16 10 16 9 0 16 -8 16 -20z m-223 -27 c-3 -10
-5 -4 -5 12 0 17 2 24 5 18 2 -7 2 -21 0 -30z m304 -16 c-13 -13 -15 11 -4 40
7 16 8 15 11 -6 2 -13 -1 -28 -7 -34z m-6486 33 c-3 -5 -11 -10 -16 -10 -6 0
-7 5 -4 10 3 6 11 10 16 10 6 0 7 -4 4 -10z m1125 -10 c26 -1 40 -7 53 -26 25
-33 14 -42 -26 -22 -48 25 -108 30 -141 13 -15 -8 -40 -15 -54 -15 -24 0 -25
0 -7 20 11 12 31 20 51 20 18 0 36 5 40 11 3 6 16 8 28 5 11 -3 37 -6 56 -6z
m-1190 -29 c0 -12 -20 -25 -27 -18 -7 7 6 27 18 27 5 0 9 -4 9 -9z m950 -1 c0
-5 -4 -10 -10 -10 -5 0 -10 5 -10 10 0 6 5 10 10 10 6 0 10 -4 10 -10z m4917
-12 c-3 -8 -6 -5 -6 6 -1 11 2 17 5 13 3 -3 4 -12 1 -19z m-210 -10 c-3 -8 -6
-5 -6 6 -1 11 2 17 5 13 3 -3 4 -12 1 -19z m613 -3 c0 -8 -4 -17 -10 -20 -6
-4 -10 5 -10 20 0 15 4 24 10 20 6 -3 10 -12 10 -20z m-319 -39 c15 -16 11
-92 -6 -106 -13 -11 -15 -8 -16 21 0 19 -2 54 -4 79 -4 47 8 82 13 40 2 -14 8
-29 13 -34z m529 39 c0 -8 -4 -15 -10 -15 -5 0 -10 7 -10 15 0 8 5 15 10 15 6
0 10 -7 10 -15z m-5503 -22 c-9 -9 -20 -13 -24 -9 -4 4 1 14 11 22 25 18 35 8
13 -13z m-1032 7 c-3 -5 -10 -10 -16 -10 -5 0 -9 5 -9 10 0 6 7 10 16 10 8 0
12 -4 9 -10z m490 0 c-3 -5 -11 -10 -16 -10 -6 0 -7 5 -4 10 3 6 11 10 16 10
6 0 7 -4 4 -10z m345 -15 c0 -2 -10 -10 -22 -16 -21 -11 -22 -11 -9 4 13 16
31 23 31 12z m120 -6 c0 -6 9 -9 20 -6 26 7 16 -10 -31 -51 -32 -28 -38 -30
-49 -17 -16 19 3 44 34 46 17 1 17 2 4 6 -19 5 -23 15 -11 26 10 11 33 8 33
-4z m-1020 -3 c0 -3 -4 -8 -10 -11 -5 -3 -10 -1 -10 4 0 6 5 11 10 11 6 0 10
-2 10 -4z m5800 -17 c0 -5 -4 -9 -10 -9 -5 0 -10 7 -10 16 0 8 5 12 10 9 6 -3
10 -10 10 -16z m614 4 c9 -23 -12 -43 -24 -23 -5 8 -10 21 -10 28 0 18 27 15
34 -5z m-215 -85 c1 -5 -3 -8 -9 -8 -5 0 -10 12 -9 28 0 24 1 25 9 7 5 -11 9
-23 9 -27z m-376 7 c4 -8 2 -17 -3 -20 -6 -4 -10 -4 -10 -1 0 2 -3 11 -6 20
-3 9 -2 16 4 16 5 0 12 -7 15 -15z m-4555 -25 c3 -9 -1 -11 -12 -7 -10 4 -21
7 -26 7 -4 0 -10 6 -13 14 -4 11 1 12 21 7 14 -4 28 -13 30 -21z m-758 10 c0
-5 -9 -14 -20 -20 -22 -12 -27 -1 -8 18 14 14 28 16 28 2z m408 -12 c-2 -6
-10 -14 -16 -16 -7 -2 -10 2 -6 12 7 18 28 22 22 4z m275 5 c-7 -2 -19 -2 -25
0 -7 3 -2 5 12 5 14 0 19 -2 13 -5z m-1179 -12 c3 -5 -1 -12 -10 -15 -20 -8
-29 -1 -19 13 8 13 22 14 29 2z m1086 -11 c-8 -5 -19 -10 -25 -10 -5 0 -3 5 5
10 8 5 20 10 25 10 6 0 3 -5 -5 -10z m-640 -8 c0 -5 -19 -21 -41 -38 -23 -16
-54 -40 -70 -54 -16 -14 -36 -31 -44 -38 -8 -6 -26 -17 -40 -24 -14 -6 -25
-15 -25 -20 0 -4 -4 -8 -9 -8 -20 0 -111 -76 -111 -93 0 -14 -3 -15 -18 -6
-15 10 -27 7 -66 -16 -26 -15 -50 -25 -53 -22 -9 9 25 57 41 57 23 0 76 31 86
51 6 10 19 19 29 19 10 0 24 7 31 15 7 8 22 15 35 15 14 0 26 9 33 25 7 16 20
25 34 25 13 0 29 9 36 20 7 11 19 20 27 20 8 0 19 9 24 19 6 10 28 28 48 39
42 23 53 26 53 14z m490 4 c0 -3 -4 -8 -10 -11 -5 -3 -10 -1 -10 4 0 6 5 11
10 11 6 0 10 -2 10 -4z m5050 -12 c0 -8 -4 -12 -10 -9 -5 3 -10 10 -10 16 0 5
5 9 10 9 6 0 10 -7 10 -16z m-6060 -14 c0 -5 -7 -10 -16 -10 -8 0 -12 5 -9 10
3 6 10 10 16 10 5 0 9 -4 9 -10z m925 0 c-3 -5 -11 -10 -16 -10 -6 0 -7 5 -4
10 3 6 11 10 16 10 6 0 7 -4 4 -10z m4952 -12 c-3 -8 -6 -5 -6 6 -1 11 2 17 5
13 3 -3 4 -12 1 -19z m-4917 -13 c0 -8 -7 -15 -15 -15 -9 0 -12 6 -9 15 4 8
10 15 15 15 5 0 9 -7 9 -15z m5115 -46 c6 -19 16 -44 23 -56 16 -29 15 -53 -3
-53 -8 0 -15 5 -15 11 0 6 -9 22 -20 36 -12 16 -20 41 -20 65 0 49 20 47 35
-3z m-5945 -3 c0 -2 -7 -6 -15 -10 -8 -3 -15 -1 -15 4 0 6 7 10 15 10 8 0 15
-2 15 -4z m770 -5 c0 -5 -7 -11 -14 -14 -10 -4 -13 -1 -9 9 6 15 23 19 23 5z
m335 -11 c-3 -5 -13 -10 -21 -10 -8 0 -14 5 -14 10 0 6 9 10 21 10 11 0 17 -4
14 -10z m-465 -24 c0 -3 -4 -8 -10 -11 -5 -3 -10 -1 -10 4 0 6 5 11 10 11 6 0
10 -2 10 -4z m84 -10 c-7 -19 -34 -29 -34 -12 0 16 10 26 26 26 8 0 11 -6 8
-14z m5141 -6 c3 -5 1 -10 -4 -10 -6 0 -11 5 -11 10 0 6 2 10 4 10 3 0 8 -4
11 -10z m-5615 -4 c0 -3 -4 -8 -10 -11 -5 -3 -10 -1 -10 4 0 6 5 11 10 11 6 0
10 -2 10 -4z m5320 -22 c0 -8 -4 -12 -10 -9 -5 3 -10 10 -10 16 0 5 5 9 10 9
6 0 10 -7 10 -16z m-4900 -13 c0 -5 -7 -12 -16 -15 -24 -9 -28 -7 -14 9 14 17
30 20 30 6z m-100 -21 c0 -5 -4 -10 -10 -10 -5 0 -10 5 -10 10 0 6 5 10 10 10
6 0 10 -4 10 -10z m5330 -5 c0 -8 -4 -15 -10 -15 -5 0 -10 7 -10 15 0 8 5 15
10 15 6 0 10 -7 10 -15z m-740 -27 c0 -21 -3 -29 -10 -22 -5 5 -7 19 -4 32 9
31 14 27 14 -10z m-4540 12 c0 -5 -9 -14 -20 -20 -24 -13 -26 -7 -4 14 18 18
24 20 24 6z m-470 -9 c0 -5 -9 -11 -20 -14 -20 -5 -26 3 -13 16 9 10 33 8 33
-2z m378 -3 c-2 -6 -10 -14 -16 -16 -7 -2 -10 2 -6 12 7 18 28 22 22 4z m5182
-18 c0 -5 -4 -10 -10 -10 -5 0 -10 5 -10 10 0 6 5 10 10 10 6 0 10 -4 10 -10z
m-5240 -20 c0 -5 -5 -10 -11 -10 -5 0 -7 5 -4 10 3 6 8 10 11 10 2 0 4 -4 4
-10z m544 1 c3 -5 -1 -12 -10 -15 -27 -11 -37 -7 -24 9 14 17 26 19 34 6z
m-464 -9 c0 -11 -28 -36 -57 -51 -19 -10 -23 -9 -23 4 0 8 11 20 24 25 13 5
27 14 31 19 7 13 25 15 25 3z m5029 -56 c-9 -8 -10 -7 -5 7 3 10 7 26 7 35 1
9 4 6 6 -7 3 -13 -1 -28 -8 -35z m151 39 c0 -8 -4 -15 -10 -15 -5 0 -10 7 -10
15 0 8 5 15 10 15 6 0 10 -7 10 -15z m-5300 -15 c-6 -11 -15 -18 -21 -14 -6 4
-6 11 2 20 17 21 31 17 19 -6z m4740 5 c0 -8 -4 -15 -10 -15 -5 0 -10 7 -10
15 0 8 5 15 10 15 6 0 10 -7 10 -15z m-4370 -15 c0 -5 -5 -10 -11 -10 -5 0 -7
5 -4 10 3 6 8 10 11 10 2 0 4 -4 4 -10z m347 -34 c18 -11 33 -25 33 -30 0 -5
-7 -3 -16 4 -8 7 -41 14 -72 15 -77 3 -107 17 -85 38 12 13 108 -5 140 -27z
m-712 -31 c-22 -20 -49 -40 -60 -45 -11 -6 -28 -15 -37 -22 -20 -14 -33 -5
-25 17 4 8 16 15 27 15 12 0 38 16 58 35 20 19 46 35 57 35 16 0 12 -7 -20
-35z m548 28 c12 -11 -14 -33 -39 -33 -28 0 -31 15 -6 29 20 12 36 14 45 4z
m4197 -23 c0 -5 -4 -10 -10 -10 -5 0 -10 5 -10 10 0 6 5 10 10 10 6 0 10 -4
10 -10z m-4306 -60 c-21 -22 -45 -40 -53 -40 -21 0 51 78 73 79 16 1 12 -7
-20 -39z m4906 25 c0 -8 -4 -15 -10 -15 -5 0 -10 7 -10 15 0 8 5 15 10 15 6 0
10 -7 10 -15z m-823 -67 c-3 -8 -6 -5 -6 6 -1 11 2 17 5 13 3 -3 4 -12 1 -19z
m633 -38 c0 -12 -3 -12 -16 2 -9 9 -13 21 -9 28 9 14 25 -5 25 -30z m-5310 15
c-7 -8 -16 -15 -21 -15 -5 0 -6 7 -3 15 4 8 13 15 21 15 13 0 13 -3 3 -15z
m525 -4 c-3 -6 -11 -11 -17 -11 -6 0 -6 6 2 15 14 17 26 13 15 -4z m-583 -43
c-7 -7 -12 -8 -12 -2 0 14 12 26 19 19 2 -3 -1 -11 -7 -17z m518 8 c0 -3 -4
-8 -10 -11 -5 -3 -10 -1 -10 4 0 6 5 11 10 11 6 0 10 -2 10 -4z m25 -5 c3 -5
1 -12 -5 -16 -5 -3 -10 1 -10 9 0 18 6 21 15 7z"/>
<path d="M4824 8349 c-99 -18 -175 -70 -218 -149 -46 -84 -27 -152 60 -212 21
-15 59 -34 84 -44 56 -21 55 -20 40 -39 -9 -11 -17 -12 -31 -4 -16 8 -19 6
-19 -15 0 -20 6 -25 39 -31 49 -8 108 3 115 21 6 16 56 9 68 -10 5 -7 12 -4
22 9 14 19 15 19 35 1 20 -18 20 -18 25 5 3 13 5 31 6 39 0 8 5 73 10 145 6
83 6 133 -1 141 -5 6 -7 19 -3 28 29 76 -100 140 -232 115z m109 -88 c-8 -32
33 -64 73 -58 39 6 44 -2 13 -21 -26 -17 -89 -18 -117 -3 -27 14 -29 57 -5 83
21 24 43 23 36 -1z m-23 -340 c0 -11 -49 -21 -55 -11 -7 11 1 15 29 18 14 1
26 -2 26 -7z m40 -1 c0 -5 -7 -10 -15 -10 -8 0 -15 5 -15 10 0 6 7 10 15 10 8
0 15 -4 15 -10z"/>
<path d="M4685 7900 c-3 -5 1 -10 9 -10 9 0 16 5 16 10 0 6 -4 10 -9 10 -6 0
-13 -4 -16 -10z"/>
<path d="M4532 7888 c-21 -21 -13 -33 23 -34 33 0 52 17 39 37 -8 13 -48 11
-62 -3z"/>
<path d="M4610 7884 c0 -9 5 -14 12 -12 18 6 21 28 4 28 -9 0 -16 -7 -16 -16z"/>
<path d="M4445 7879 c-12 -18 3 -22 20 -5 14 14 14 16 1 16 -8 0 -18 -5 -21
-11z"/>
<path d="M4093 3776 c4 -10 7 -32 7 -49 0 -36 15 -65 27 -54 4 5 2 12 -6 16
-8 5 -12 24 -10 51 3 30 -1 45 -10 48 -10 3 -12 0 -8 -12z"/>
<path d="M4140 3741 c0 -5 7 -11 14 -14 10 -4 13 -1 9 9 -6 15 -23 19 -23 5z"/>
<path d="M4230 3734 c0 -6 7 -19 16 -30 14 -18 14 -18 3 6 -14 31 -19 36 -19
24z"/>
<path d="M4465 3248 c-9 -24 -3 -31 58 -61 45 -23 58 -26 81 -17 43 16 26 34
-36 40 -44 4 -60 10 -76 30 -18 22 -21 23 -27 8z"/>
<path d="M2777 7181 c-3 -14 -1 -18 9 -14 16 6 18 19 5 27 -5 3 -11 -3 -14
-13z"/>
<path d="M3390 3325 c0 -5 5 -17 10 -25 5 -8 10 -10 10 -5 0 6 -5 17 -10 25
-5 8 -10 11 -10 5z"/>
<path d="M3441 3224 c0 -11 3 -14 6 -6 3 7 2 16 -1 19 -3 4 -6 -2 -5 -13z"/>
<path d="M7830 2181 c0 -6 4 -13 10 -16 6 -3 7 1 4 9 -7 18 -14 21 -14 7z"/>
<path d="M7920 1720 c0 -5 5 -10 11 -10 5 0 7 5 4 10 -3 6 -8 10 -11 10 -2 0
-4 -4 -4 -10z"/>
<path d="M7360 1650 c0 -5 5 -10 11 -10 5 0 7 5 4 10 -3 6 -8 10 -11 10 -2 0
-4 -4 -4 -10z"/>
<path d="M7330 1600 c0 -5 6 -10 14 -10 8 0 18 5 21 10 3 6 -3 10 -14 10 -12
0 -21 -4 -21 -10z"/>
<path d="M7308 1133 c-16 -2 -28 -9 -28 -14 0 -14 43 -10 64 6 21 16 18 16
-36 8z"/>
<path d="M7444 1115 c-11 -29 1 -34 25 -10 23 25 23 25 2 25 -12 0 -24 -7 -27
-15z"/>
<path d="M7120 1004 c0 -8 5 -12 10 -9 6 3 10 10 10 16 0 5 -4 9 -10 9 -5 0
-10 -7 -10 -16z"/>
<path d="M7505 880 c3 -5 8 -10 11 -10 2 0 4 5 4 10 0 6 -5 10 -11 10 -5 0 -7
-4 -4 -10z"/>
<path d="M0 98 l0 -98 25 0 c22 0 24 3 16 18 -5 10 -12 46 -15 81 -10 108 -25
108 -26 -1z"/>
</g>
</svg>
